img]http://img715.imageshack.us/img715/2632/sherlocki.jpg[/img]
[code]
Sherlock Holmes A Game of Shadows 2011 NEWSOURCE CAM XviD-26K-BIDA
 
Imdb: 
http://www.imdb.com/title/tt1515091/
 
Plot:
Sherlock Holmes and his sidekick Dr. Watson join forces to outwit and bring down their fiercest adversary, Professor Moriarty.
 
Sources:
thnxs to miyagi for video  !THNXS!!
thnxs to miyagi for audio + thnxs to bida for the sync :P you rock!
 
Notes:
FIRST OF ALL BIG THNXS TO BIDA FOR THE SYNC YOU ROCK MAN!!! MANY THNXS BRO!
READNFO BECAUSE THE ENGLISH AUDIO has 3MINS AND 15SECS MISSING!!! 3MINS AT THE START AND 15 SECS AROUND THE 1HR MARK!!!the 15 sec gap was added by the italian audio bu the first 3 mins was cut as thier was no audio for it nothing major is missed here only talking at the start!!
rest of the movie is fine :)
 
the italian source was very so just encoded it and added a few filters to get rid of the black borders and sharpenned it up as well and added a bit of color to make it look very nice!
then muxed the synced audio to the encode!
overall not perfect englsih audio for first cam but a better will be coming soon :!
 
so thats it for now :P enjoy and ps a new audio for this will be coming soon :D
 
 
Greetz:
Xtreme Encode|FYA|ILLUMANTI|CM8|RX|VISION|HDSCENE|NIGHTMAREZ|xTriLL|DTRG|CRYS|REMIXHD|BIDA
To all the people who have helped me :P you know who you are
 
Anything to offer email us @: 26k@hushmail.me
 
Video
ID                                       : 0
Format                                   : MPEG-4 Visual
Format profile                           : Advanced Simple@L5
Format settings, BVOP                    : 4
Format settings, QPel                    : No
Format settings, GMC                     : No warppoints
Format settings, Matrix                  : Default (H.263)
Codec ID                                 : XVID
Codec ID/Hint                            : XviD
Duration                                 : 1h 56mn
Bit rate                                 : 1 983 Kbps
Width                                    : 720 pixels
Height                                   : 298 pixels
Display aspect ratio                     : 2.40:1
Frame rate                               : 25.000 fps
Color space                              : YUV
Chroma subsampling                       : 4:2:0
Bit depth                                : 8 bits
Scan type                                : Progressive
Compression mode                         : Lossy
Bits/(Pixel*Frame)                       : 0.370
Stream size                              : 1.61 GiB (94%)
Writing library                          : XviD 63
 
Audio
ID                                       : 1
Format                                   : MPEG Audio
Format version                           : Version 1
Format profile                           : Layer 3
Codec ID                                 : 50
Duration                                 : 1h 56mn
Bit rate mode                            : Constant
Bit rate                                 : 128 Kbps
Channel(s)                               : 2 channels
Sampling rate                            : 44.1 KHz
Compression mode                         : Lossy
Stream size                              : 106 MiB (6%)
Alignment                                : Split accross interleaves
Interleave, duration                     : 500 ms (12.50 video frames)
Interleave, preload duration             : 500 ms
 
[/code]
Screens:
[img]http://img850.imageshack.us/img850/9053/vlcsnap2011122319h30m20.png[/img]
[img]http://img515.imageshack.us/img515/7223/vlcsnap2011122319h30m24.png[/img]
[img]http://img708.imageshack.us/img708/1623/vlcsnap2011122319h30m32.png[/img]
[img]http://img193.imageshack.us/img193/5509/vlcsnap2011122319h30m37.png[/img]
[img]http://img11.imageshack.us/img11/2461/vlcsnap2011122319h30m45.png[/img]
[img]http://img860.imageshack.us/img860/894/vlcsnap2011122319h30m55.png[/img]
[img]http://img836.imageshack.us/img836/1774/vlcsnap2011122319h32m04.png[/img]
[img]http://img4.imageshack.us/img4/5476/vlcsnap2011122319h32m11.png[/img]
[img]http://img824.imageshack.us/img824/1240/vlcsnap2011122319h32m16.png[/img]
 
[img]http://img851.imageshack.us/img851/5503/26ks.jpg[/img]#
Thank you smallz for banner!